/* XPM */
static char *_555720880540[] = {
/* columns rows colors chars-per-pixel */
"32 32 176 2 ",
"   c #29292B",
".  c #2A2A2B",
"X  c gray17",
"o  c #2A2A2C",
"O  c #2B2B2C",
"+  c #2B2B2D",
"@  c #2C2C2D",
"#  c #2D2D2E",
"$  c #2E2E2F",
"%  c #32322A",
"&  c #2E2E30",
"*  c #2F2F30",
"=  c #303032",
"-  c #313133",
";  c #323233",
":  c #323234",
">  c #333335",
",  c #343435",
"<  c #343536",
"1  c #353536",
"2  c #363637",
"3  c #363638",
"4  c #38383A",
"5  c #38393A",
"6  c #3A3A3B",
"7  c #3B3B3D",
"8  c #3C3C3C",
"9  c #3C3C3E",
"0  c #3D3D3F",
"q  c #3F3F3F",
"w  c #735F31",
"e  c #3F3F40",
"r  c #404042",
"t  c #424244",
"y  c #434345",
"u  c #49494A",
"i  c #4A4A4C",
"p  c #4E4E4F",
"a  c #4F4F51",
"s  c #515153",
"d  c #555556",
"f  c #58585A",
"g  c #59595B",
"h  c #5A5A5C",
"j  c #5B5B5D",
"k  c #5C5C5D",
"l  c #616162",
"z  c #616163",
"x  c #676869",
"c  c #6D6D6E",
"v  c #6E6E6F",
"b  c #707071",
"n  c #717172",
"m  c #727273",
"M  c #757577",
"N  c #767678",
"B  c #813033",
"V  c #D61B23",
"C  c #DC1B22",
"Z  c #E62C20",
"A  c #947229",
"S  c #E8681D",
"D  c #EA6E1C",
"F  c #E37B1B",
"G  c #E77A1A",
"H  c #A9A311",
"J  c #CC8D1E",
"K  c #EC8319",
"L  c #F3B40F",
"P  c #F2B90C",
"I  c #E2A113",
"U  c #E6A411",
"Y  c #EEA111",
"T  c #EFA213",
"R  c #E9A613",
"E  c #EBA612",
"W  c #EBA713",
"Q  c #EFAB12",
"!  c #EFAA13",
"~  c #F1AB12",
"^  c #F1AB13",
"/  c #F2AB12",
"(  c #F3AB13",
")  c #F0AC13",
"_  c #F2AC12",
"`  c #F2AC13",
"'  c #F2AD13",
"]  c #F4AD13",
"[  c #F6AD13",
"{  c #F5AF12",
"}  c #F4AE13",
"|  c #F5AE13",
" . c #F6AE12",
".. c #F7AF12",
"X. c #F6AE13",
"o. c #F6AF13",
"O. c #F7AF13",
"+. c #F0AA14",
"@. c #F9B112",
"#. c #F8B013",
"$. c #F9B013",
"%. c #F9B113",
"&. c #F8B114",
"*. c #FBB214",
"=. c #C9C00A",
"-. c #EDC30A",
";. c #ECE301",
":. c #EFE501",
">. c #F2E700",
",. c #F4E901",
"<. c #F5EB00",
"1. c #F6EA01",
"2. c #F7EB01",
"3. c #F6EA02",
"4. c #F7EC00",
"5. c #F7EC01",
"6. c #F8EC00",
"7. c #F9EE01",
"8. c #FBEF00",
"9. c #FEF100",
"0. c #808081",
"q. c #818182",
"w. c #828283",
"e. c #838384",
"r. c #848485",
"t. c #868687",
"y. c #8C8C8D",
"u. c #939394",
"i. c #9A9A9B",
"p. c #9C9C9D",
"a. c #A3A3A4",
"s. c #A3A4A5",
"d. c #A5A5A6",
"f. c #A6A6A7",
"g. c #A8A8A9",
"h. c #A9A9AA",
"j. c #ACACAD",
"k. c #AFAFB0",
"l. c #B1B1B1",
"z. c #B1B1B2",
"x. c #B2B2B2",
"c. c gray70",
"v. c #B7B7B8",
"b. c gray",
"n. c #C0C0C0",
"m. c gray76",
"M. c gray78",
"N. c gray79",
"B. c #CFCFD0",
"V. c gray83",
"C. c #D5D5D5",
"Z. c #D7D7D8",
"A. c #D8D8D9",
"S. c #DADADA",
"D. c gray86",
"F. c #DDDDDD",
"G. c gray87",
"H. c #DFE0E0",
"J. c #E1E1E2",
"K. c #E4E4E5",
"L. c #E5E5E6",
"P. c gray92",
"I. c #EBEBEC",
"U. c #ECECEC",
"Y. c gray93",
"T. c #EEEEEE",
"R. c #EFEFEF",
"E. c #F1F1F1",
"W. c #F3F3F3",
"Q. c #F6F6F6",
"!. c gray97",
"~. c #FBFBFB",
"^. c gray99",
"/. c #FDFDFD",
"(. c #FEFEFE",
"). c None",
/* pixels */
").).).).).).).).).).).).).).).).).).).).).).).).).).).).).).).).",
").).).).).).).).).).).).).).).).).).).).).).).).).).).).).).).).",
").).).).).).).).).).).).).).).<.).).).).).).).).).).).).).).).).",
").).).).).).).).).).).).).).).9.9.>.).).).).).).).).).).).).).).",
").).).).).6.4.).).[ [ [ *.) ) -.,.).).).).).).).).).).).).).).).",
").).).).).).).[ *.U ).).).).).).! ).).).).).).).).).).).).).).).",
").).).).).).).*.I ).).;.).).).).).).).).).).).).).).).).).).).).",
").).).).).).#.[ ).).).).).).).).).).).).).).).).).).).).).).).).",
").).).).).).*.+.).).).).,.6.).).).).:.).).).).).).).).).).).).).",
").).).).).[ *.).).).).).,.9.6.).).).,.).).).).).).).).).).).).).",
").).).).).[ *.).).).).).).=.H % @ o ).).).).).).).).).).).).).).",
").).).).).*.*.' ).).).).).# # # * # # X ).).).).).).).).).).).).",
").).).).).[ *.W ).).).).# # - : : - * # # ).).).).).).).).).).).",
").).).).).).#.).).).).# * , 7 p i 7 4 d x v c ).).).).).).).).).",
").).).).).).).).h.Z.B.t., n L.(.~.k.j (.A.x.P.A.).).).).).).).).",
").).).).).).).x.(.m.h.b.t T.F.z g n t Q.M.u.I.N.).).).).).).).).",
").).).).).).).V.J.= o 3 u /.d.e e 7 9 C.K.0.s.(.t.).).).).).).).",
").).).).).).).v.T.: o * 3 H.H.a r s z x.P.i.A.m.).).).).).).).).",
").).).).).).).t.(.a., 3 e.N !.E.C.W.n M x.y.k ).).).).).).).).).",
").).).).).).).).j.^.I.I.T.e f p.i.j - # # ).).).).' ).).).).).).",
").).).).).).).).).0.x.d.s # % * * # # X ).).).).).#.( ).).).).).",
").).).).).).).).).).).).).9 3 # X @ ).).).).).).[ *.*.).).).).).",
").).).).).).).).).).).).).).).9 ).).).).).).).).).*.*.).).).).).",
").).).).).).).).).).).).).).).J ).).).).).).).).).*.' ).).).).).",
").).).).).).).).).).).).).).).G Y L ).).).).).).).*.( ).).).).).",
").).).).).).).).).).).).).).).).S K Y P ).).).).).*.).).).).).).",
").).).).).).).).).).).).).).).).C Z D F ).).).).*.( ).).).).).).",
").).).).).).).).).).).).).).W w ).B V ).).).).*.*.).).).).).).).",
").).).).).).).).).).).).).).).).' A ).).).).*.' ).).).).).).).).",
").).).).).).).).).).).).).).).).).).( ( [ ( W ).).).).).).).).).",
").).).).).).).).).).).).).).).).).).).).).).).).).).).).).).).).",
").).).).).).).).).).).).).).).).).).).).).).).).).).).).).).).)."
};
