/* XPM */
static char *b26238942bab4858928bcd55c43dc8a0[] = {
/* columns rows colors chars-per-pixel */
"60 64 224 2 ",
"   c #00379E",
".  c #00399F",
"X  c #0047A6",
"o  c #0055AC",
"O  c #0159AE",
"+  c #0A59AF",
"@  c #005DB0",
"#  c #0B5EB1",
"$  c #115FB1",
"%  c #1C5EB1",
"&  c #0163B3",
"*  c #0A64B3",
"=  c #0169B6",
"-  c #0E6CB7",
";  c #006DB8",
":  c #0C6FBA",
">  c #1464B3",
",  c #1C6AB7",
"<  c #146DBA",
"1  c #1C6EBB",
"2  c #0777BD",
"3  c #0D75BC",
"4  c #0B78BD",
"5  c #1176BC",
"6  c #1B75BC",
"7  c #1279BE",
"8  c #1C79BE",
"9  c #2465B4",
"0  c #256CB7",
"q  c #2474BE",
"w  c #2B73BC",
"e  c #2379BE",
"r  c #2C7ABF",
"t  c #3476BC",
"y  c #387CBF",
"u  c #2675C0",
"i  c #2977C1",
"p  c #257BC0",
"a  c #2D7CC1",
"s  c #327DC2",
"d  c #3C7DC0",
"f  c #417CC0",
"g  c #029ADC",
"h  c #0A9CDD",
"j  c #139DDD",
"k  c #1C9CDD",
"l  c #2980C2",
"z  c #3581C3",
"x  c #3C84C5",
"c  c #3B89C6",
"v  c #3682C8",
"b  c #3C85C9",
"n  c #328BD1",
"m  c #249EDE",
"M  c #2C9FDE",
"N  c #3694D7",
"B  c #3D94D5",
"V  c #329FDD",
"C  c #3C9BDA",
"Z  c #11A0DE",
"A  c #24A3DF",
"S  c #2EA2DE",
"D  c #34A1DE",
"F  c #3CA3DF",
"G  c #29A6E0",
"H  c #25A9E1",
"J  c #2BA8E1",
"K  c #35A6E0",
"L  c #3BA7E0",
"P  c #33AAE1",
"I  c #3CACE2",
"U  c #32B1E3",
"Y  c #4184C5",
"T  c #4D87C5",
"R  c #4389C6",
"E  c #4B8AC6",
"W  c #4187C8",
"Q  c #448CCC",
"!  c #4B8DCA",
"~  c #548FC9",
"^  c #4E90CC",
"/  c #5293CE",
"(  c #5B96CD",
")  c #5C99CE",
"_  c #4692D1",
"`  c #4A94D2",
"'  c #4B99D6",
"]  c #469AD9",
"[  c #4B9DD9",
"{  c #5696D1",
"}  c #5897D1",
"|  c #559BD5",
" . c #5C9BD4",
".. c #539ED8",
"X. c #6291CA",
"o. c #639BCE",
"O. c #6F9BCF",
"+. c #619ED5",
"@. c #6B9FD0",
"#. c #44A2DD",
"$. c #4AA2DC",
"%. c #5DA0D7",
"&. c #55A3DC",
"*. c #5BA2D9",
"=. c #54A8DF",
"-. c #5CA9DE",
";. c #62A0D7",
":. c #6DA4D4",
">. c #64A4D9",
",. c #68A6DA",
"<. c #65A9DC",
"1. c #6AABDD",
"2. c #71A4D3",
"3. c #78A7D4",
"4. c #74A9D6",
"5. c #7AAAD7",
"6. c #73ABDB",
"7. c #7AADD9",
"8. c #73B0DF",
"9. c #7DB2DC",
"0. c #42A7E0",
"q. c #43ADE3",
"w. c #4BACE2",
"e. c #54ABE1",
"r. c #5AADE2",
"t. c #45B2E4",
"y. c #4BB1E4",
"u. c #54B2E4",
"i. c #5BB3E4",
"p. c #56BBE7",
"a. c #64AEE1",
"s. c #6AAFE1",
"d. c #64B3E4",
"f. c #6AB2E3",
"g. c #65B9E6",
"h. c #6BB9E6",
"j. c #69BCE8",
"k. c #72B6E3",
"l. c #7CB6E2",
"z. c #72BBE7",
"x. c #7EB8E3",
"c. c #70BCE8",
"v. c #62C2E9",
"b. c #7BC2E9",
"n. c #77C8EC",
"m. c #7CC9EC",
"M. c #81ADD7",
"N. c #8BABD6",
"B. c #81AFD9",
"V. c #83B3DD",
"C. c #8CB6DC",
"Z. c #99B4DB",
"A. c #95BBDE",
"S. c #99B9DD",
"D. c #A6BEDF",
"F. c #85B5E0",
"G. c #8AB7E0",
"H. c #83BBE5",
"J. c #8BBAE2",
"K. c #94BDE2",
"L. c #9BBFE1",
"P. c #8CC1E7",
"I. c #84C4EA",
"U. c #8CC4EA",
"Y. c #85CBED",
"T. c #8CCBED",
"R. c #93C2E6",
"E. c #9DC4E4",
"W. c #95C7E9",
"Q. c #9AC7E9",
"!. c #94CBED",
"~. c #9ACCEC",
"^. c #8CD2EF",
"/. c #9DD1EF",
"(. c #9BD3F0",
"). c #A3C3E2",
"_. c #ACC6E3",
"`. c #A6CAE5",
"'. c #ADCBE6",
"]. c #A3CCEB",
"[. c #ACCBE8",
"{. c #B2C7E4",
"}. c #B5CCE6",
"|. c #B0CEE9",
" X c #BDCFE8",
".X c #A5D3EF",
"XX c #ADD3EF",
"oX c #B3D2EC",
"OX c #BBD3EB",
"+X c #B7D8EF",
"@X c #B9D8EF",
"#X c #A1D5F0",
"$X c #AED5F0",
"%X c #A3DAF3",
"&X c #B4D7F0",
"*X c #B3D9F1",
"=X c #BCDBF1",
"-X c #B6E4F6",
";X c #BCE2F5",
":X c #C3D5EB",
">X c #C9D7EB",
",X c #C5DAEE",
"<X c #CCDCEE",
"1X c #D0DEEF",
"2X c #C3DEF2",
"3X c #C4E2F5",
"4X c #CBE4F4",
"5X c #CDE8F7",
"6X c #D4E3F2",
"7X c #DBE6F3",
"8X c #D3EAF7",
"9X c #DDEAF5",
"0X c #D6ECF8",
"qX c #DDEEF9",
"wX c #E0E9F4",
"eX c #E9EEF6",
"rX c #E4EEF8",
"tX c #ECF0F7",
"yX c #E4F2FA",
"uX c #ECF3FA",
"iX c #F1F6FB",
"pX c #F4FAFD",
"aX c #FFFFFF",
"sX c None",
/* pixels */
"sXsXsXsXsXsXsXsXsXsXsXsXsXsXsXsXsXsXsXsXsXsXsXsXsXsXsXsXsXsXsXsXsXsXsXsXsXsXsXsXsXsXsXsXsXsXsXsXsXsXsXsXsXsXsXsXsXsXsXsX",
"sXsXsXsXsXsXsXsXsXsXsXsXsXsXsXsXsXsXsXsXsXsXsXsXsXsXsXsXsXsXsXsXsXsXsXsXsXsXsXsXsXsXsXsXsXsXsXsXsXsXsXsXsXsXsXsXsXsXsXsX",
"sXsXsXsXsXsXsXsXsXsXsXsXsXsXsXsXsXsXsXsXsXsXsXsXsXsXsXsXsXsXsXsXsXsXsXsXsXsXsXsXsXsXsXsXsXsXsXsXsXsXsXsXsXsXsXsXsXsXsXsX",
"sXsXsXsXsXsXsXsXsXsXsXsXsXsXsXsXsXsXsXsXsXsXsXsXsXsXsXsXsXsXsXsXsXsXsXsXsXsXsXsXsXsXsXsXsXsXsXsXsXsXsXsXsXsXsXsXsXsXsXsX",
"sXsXsXsXsXsXsXsXsXsXsXsXsXsXsXsXsXsXsXsXsXsXsXsXsX@ = 3 8 e 8 3 = & sXsXsXsXsXsXsXsXsXsXsXsXsXsXsXsXsXsXsXsXsXsXsXsXsXsX",
"sXsXsXsXsXsXsXsXsXsXsXsXsXsXsXsXsXsXsXsXsX= c :.`.:XwXpXaXaXaXpX7X:XE.:.z & sXsXsXsXsXsXsXsXsXsXsXsXsXsXsXsXsXsXsXsXsXsX",
"sXsXsXsXsXsXsXsXsXsXsXsXsXsXsXsXsXsX& Q ).tXaXaXaXaXaXaXaXiXaXaXaXaXaXaXaXeXE.R & sXsXsXsXsXsXsXsXsXsXsXsXsXsXsXsXsXsXsX",
"sXsXsXsXsXsXsXsXsXsXsXsXsXsXsXsX* 2.wXaXaXaXpX-X^.v.t.U P m.P U t.v.^.;XpXaXaXaX7Xo.* sXsXsXsXsXsXsXsXsXsXsXsXsXsXsXsXsX",
"sXsXsXsXsXsXsXsXsXsXsXsXsXsXo :.uXaXaXiX%Xp.H h g h Z g I uXG g Z h g h H p.%XpXaXaXeXo.o sXsXsXsXsXsXsXsXsXsXsXsXsXsXsX",
"sXsXsXsXsXsXsXsXsXsXsXsXsXd 7XaXaXyXn.H h j J I I I q.j Y.aXn.j t.I I I J j h P m.yXaXaX1Xr sXsXsXsXsXsXsXsXsXsXsXsXsXsX",
"sXsXsXsXsXsXsXsXsXsXsXo M.aXaXiXm.A j P q.q.q.q.I t.I A 5XaX;XA I t.t.I q.t.t.K j A T.pXaXaX2.o sXsXsXsXsXsXsXsXsXsXsXsX",
"sXsXsXsXsXsXsXsXsXsXO }.aXaX;XP k 0.u.q.t.y.t.y.t.y.S p.aXaXaXu.P y.t.y.y.y.q.q.y.I k I 3XaXaX_.o sXsXsXsXsXsXsXsXsXsXsX",
"sXsXsXsXsXsXsXsXsX> 1XaXaXY.k L u.u.0.q.p.y.y.y.y.u.A (.aXaXaX^.A u.y.y.u.y.p.q.q.p.p.K k T.aXaX:X# sXsXsXsXsXsXsXsXsXsX",
"sXsXsXsXsXsXsXsX$ 6XaXiXi.m u.u.p.0.q.#Xu.w.u.u.u.y.L 0XaXaXaX3XL y.y.u.u.w.i.#X0.0.u.u.w.m g.aXaX<X+ sXsXsXsXsXsXsXsXsX",
"sXsXsXsXsXsXsX+ >XaXiXu.M i.u.u.u.S 3X;XF i.u.u.i.L g.aXaXaXaXaXi.0.u.u.u.i.L 3X;XM u.u.i.i.M i.pXaX XO sXsXsXsXsXsXsXsX",
"sXsXsXsXsXsXo ).aXpXi.D i.i.i.i.D !.aXT.D i.u.i.i.D /.aXaXaXaXaX^.F i.i.u.i.D !.aXT.V i.u.i.i.V d.aXaXS.o sXsXsXsXsXsXsX",
"sXsXsXsXsXsXO.aXaXc.D d.i.i.d.F c.aXaXb.0.i.i.i.i.0.8XaXaXaXaXaX3XL i.i.i.i.#.I.aXaXh.0.g.i.i.d.D b.aXaXX.sXsXsXsXsXsXsX",
"sXsXsXsXsXw aXaX~.V d.i.i.g.w.u.uXaXpXd.u.i.i.d.0.j.aXaXaXaXaXaXaXd.w.d.d.d.0.h.aXaXyX0.w.d.i.i.d.D #XaXpX0 sXsXsXsXsXsX",
"sXsXsXsXO {.aX5XF i.d.d.d.i.F =XaXaXuXi.e.i.d.f.#.!.aXaXaXaXaXaXaXT.F d.d.d.u.d.iXaXaX*XF d.d.d.d.r.#.0XaXD.O sXsXsXsXsX",
"sXsXsXsXE aXaXf.0.d.d.d.f.#.U.aXaXaXrXu.r.f.a.i.$.3XaXaXaXaXaXaXaX=X#.d.d.d.r.r.uXaXaXaXb.#.d.d.d.d.$.z.aXaXY sXsXsXsXsX",
"sXsXsX@ :XaX*XC f.d.d.d.r.e.uXaXaXaX5X=.a.d.f.e.f.aXaXaXaXaXaXaXaXiXd.r.d.d.r.e.qXaXaXaXrX=.r.d.d.d.f.#.=XaX}.O sXsXsXsX",
"sXsXsXE aXaXf.e.d.f.f.f.#..XaXaXaXaX3Xe.d.f.f.$.W.aXaXpXiXaXiXpXaXaXU.$.f.f.f.=.0XaXaXaXaX/.$.f.d.f.h.$.k.aXaXx sXsXsXsX",
"sXsXsX_.aX2X] f.f.f.f.=.s.aXaXaXaXaX3X=.f.s.d.$.3XaXaXW.*XaXXX~.aXaX=X$.f.s.f.&.5XaXaXaXaXiXa.=.f.f.f.f.$.3XaXS.sXsXsXsX",
"sXsX1 pXaXI.$.f.1.f.s.$.@XaXaXaXaXaX=X&.s.s.r.s.aXaX$XC qXaX8XN 2XaXiXa.-.f.s.=.3XaXaXaXaXaX$X[ s.f.a.s.$.P.aXtX< sXsXsX",
"sXsX) aXuXr.a.s.s.k.&.k.aXaXaXaXaXaX@X=.s.f.[ ].aX=XN s.aXaXpXr.B 3XaXW.[ s.s.=.3XaXaXaXaXaXpXf.-.s.f.1.-.1.pXaX~ sXsXsX",
"sXsXA.aX2X[ s.1.s.s.[ @XaXaXaXaXaXaX@X&.a.<.a.uX&X] [ H.aXaXaXl.[ [ 2XrX-.<.s.&.2XaXaXaXaXaXaXXX[ s.s.f.1.[ 3XaXC.sXsXsX",
"sX& 1XaXQ.[ 1.s.1.*.s.pXaXaXaXaXaXaX2X&.s.<.H.J.] s...R.aXaXaXH.&.<.[ P.l.<.1.&.4XaXaXaXaXaXaXiX<.-.8.1.8.[ ].aX:X& sXsX",
"sX8 pXaXx.&.1.s.1.' ].aXaXaXaXoXJ.aX4X..,.s.a.=.1.s.[ ].aXaXaXQ.[ 1.1.&.<.s.,.-.9XaXH.@XaXaXaXaXQ.' s.1.1.[ H.aXuX: sXsX",
"sXx aXaX1.*.s.,.<.*.yXaXaXaX2XB n 2XiX*.<.,.<.,.,.,.[ @XaXaXaXoX' s.,.<.,.,.a.*.pX@Xn _ 2XaXaXaX9X%.<.,.<.| 8.aXaXr sXsX",
"sX! aXiX>.*.,.,.' H.aXaXaXiX*.| >.<.2X8.*.,.,.,.<.,.' 2XaXaXaX=X] ,.<.,.<.,.*.l.2X%.,.' >.aXaXaXaXl.' <.<.%.1.aXaXx sXsX",
"O ) aXrX*.*.,.,.` =XaXaXaXOX` <.,.*. .,.<.,.>.>.,.>.| 9XaXaXaX6X| >.,.>.,.,.>.,.*.%.<.,.] ,XaXaXaXoX] ,.<.%.%.uXaX! O sX",
"O ) aX9X|  .>.|  .uXaXaXaXR._ ,.>.>.*.>.>.;.>.>.>.| >.uXaXaXaXrX . .;.>.>.;.>.>. .>.>.,._ E.aXaXaXyX . .;.%.%.uXaX^ O sX",
"o ) aX9X| +.;._ G.aXaXaXaXG.` ;.;.;.+.+.;.;.;.;.>.` 6.aXaXaXaXaX,.' ;.;.;.;.;.;.;.+.;.;.` K.aXaXaXaX9.` ;. .+.uXaX! o sX",
"sX^ aXtX{ | ;.Q oXaXaXaXaXF.Q ;.+.+.+.+.+.+.+.+.+._ 7.aXaXaXaXaX6.! ;.+.+.+.+.+.+.+.+.;.Q G.aXaXaXaX[.W ;.{ %.pXaXR sXsX",
"sXx aXaX+.` } / uXaXaXaXaXG.Q +. .+.+.+.+. . . .+.Q J.aXaXaXaXaXF.Q +.+. .+. . .+. . .+.Q K.aXaXaXaX9X` } ` ;.aXaXa sXsX",
"sXe aXaX,.! ! ,.aXaXaXaXaXK.W  .}  .}  .}  . . .} b ).aXaXaXaXaXK.b  .} }  .}  .}  . .+.b E.aXaXaXaXaX+.^ Q 4.aXpX6 sXsX",
"sX= 7XaXF.b v K.aXaXaXaXaX[.b } { { { } } } { } } v OXaXaXaXaXaX|.v } { } } } } { / } } b oXaXaXaXaXaXJ.x b G.aX<X= sXsX",
"sXsX).aX[.s v OXaXaXaXaXaX6Xb / / / { / / / / / / b <XaXaXaXaXaX@Xv / / / / / / / / / / W 7XaXaXaXaXaX[.v s  XaXA.sXsXsX",
"sXsX:.aX7Xs x rXaXaXaXaXaXiX/ W / / / / / / ^ / E W 7XaXaXaXaXaX6Xd Q / / / / / ^ / ^ x } aXaXaXaXaXaX9Xs b rXaX) sXsXsX",
"sXsXr aXaXW x aXaXaXaXaXaXaX5.q / ! ! d a i u u < x aXaXaXaXaXaXiXv 1 u u i s f ! ^ / i B.aXaXaXaXaXaXpXs / aXpXq sXsXsX",
"sXsX&  XaX5.! aXaXaXaXaXaXaXOXq i 1 u W o.5.L.[.OX6XaXaXaXaXaXaXaX6XOX'.L.5.( W q 1 s q ,XaXaXaXaXaXaXaXY C.aX_.@ sXsXsX",
"sXsXsX) aX1XL.aXaXaXaXaXaXaXpXx d K.>XpXaXaXaXaXaXaXaXaXaXaXaXaXaXaXaXaXaXaXaXiX,XA.i E aXaXaXaXaXaXaXaX).6XaX~ sXsXsXsX",
"sXsXsX* 7XaXaXaXaXaXaXaXaXaXaX9XiXaXaXaXaXaXaXaXaXaXaXaXaXaXaXaXaXaXaXaXaXaXaXaXaXaXuXwXaXaXaXaXaXaXaXaXaXaX1X& sXsXsXsX",
"sXsXsXsXO.aXaXaXaXaXaXaXaXaXaXaXaXaXaXaXaXaXaXaXaXaXaXaXaXaXaXaXaXaXaXaXaXaXaXaXaXaXaXaXaXaXaXaXaXaXaXaXaXaX( sXsXsXsXsX",
"sXsXsXsX* 1XaXaXaXaXaXaXaXaXaXaXaXaXaXaXaXaXaXaXaXaXaXaXaXaXaXaXaXaXaXaXaXaXaXaXaXaXaXaXaXaXaXaXaXaXaXaXaX:X@ sXsXsXsXsX",
"sXsXsXsXsXY aXaXaXaXaXaXaXaXaXaXaXaXaXaXaXaXaXaXaXaXaXaXaXaXaXaXaXaXaXaXaXaXaXaXaXaXaXaXaXaXaXaXaXaXaXaXaXy sXsXsXsXsXsX",
"sXsXsXsXsXo Z.aXaXaXaXaXaXaXaXaXaXaXaXaXaXaXaXaXaXaXaXaXaXaXaXaXaXaXaXaXaXaXaXaXaXaXaXaXaXaXaXaXaXaXaXaXN.sXsXsXsXsXsXsX",
"sXsXsXsXsXsXO <XaXaXaXaXaXaXaXaXaXaXaXaXaXaXaXpXtXuXaXaXaXaXaXaXaXtXuXpXaXaXaXaXaXaXaXaXaXaXaXaXaXaXaX XO sXsXsXsXsXsXsX",
"sXsXsXsXsXsXsX0 tXaXaXaXaXaXaXpX<X).7.( c r e 8 & r pXaXaXaXaXaXtX6 = 8 e r R ( 9.).1XpXaXaXaXaXaXaXwX> sXsXsXsXsXsXsXsX",
"sXsXsXsXsXsXsXsXt pXaXaX<X:.~ 8 & O O @ @ = = = @ - tXaXaXaXaXaXwX= @ = = = @ @ O O & 8 / :.6XaXaXtXw sXsXsXsXsXsXsXsXsX",
"sXsXsXsXsXsXsXsXsXf aXaX4X% . & 2 3 5 5 7 5 5 7 = 8 uXaXaXaXaXaX9X- ; 5 7 5 5 5 5 3 2 &   9 7XaXuXt sXsXsXsXsXsXsXsXsXsX",
"sXsXsXsXsXsXsXsXsXsXw 7XaXaX3.O @ 4 5 3 5 3 3 5 & e pXaXaXaXaXaXtX8 = 5 3 3 5 3 7 4 @ O M.aXaX6X, sXsXsXsXsXsXsXsXsXsXsX",
"sXsXsXsXsXsXsXsXsXsXsX* }.aXaX<Xy o @ 2 7 5 3 3 & z aXaXaXaXaXaXaXl & 3 3 5 7 2 @ o x 6XaXaX_.+ sXsXsXsXsXsXsXsXsXsXsXsX",
"sXsXsXsXsXsXsXsXsXsXsXsXo 2.aXaXaX'.z O o = 2 7 = R aXaXaXaXaXaXaXc & 7 2 = o O z }.aXaXpXo.o sXsXsXsXsXsXsXsXsXsXsXsXsX",
"sXsXsXsXsXsXsXsXsXsXsXsXsXsX, _.aXaXaX:Xo.6 O O X T aXaXaXaXaXaXaXy X O @ 6 @.<XaXaXaXD., sXsXsXsXsXsXsXsXsXsXsXsXsXsXsX",
"sXsXsXsXsXsXsXsXsXsXsXsXsXsXsXo z '.aXaXaXaX:X9.r O.aXaXaXaXaXaXaX~ z V.:XaXaXaXaX).r sXsXsXsXsXsXsXsXsXsXsXsXsXsXsXsXsX",
"sXsXsXsXsXsXsXsXsXsXsXsXsXsXsXsXsXo e B.7XaXaXaXaXaXaXaXaXaXaXaXaXaXaXaXaXaX6X5.8 sXsXsXsXsXsXsXsXsXsXsXsXsXsXsXsXsXsXsX",
"sXsXsXsXsXsXsXsXsXsXsXsXsXsXsXsXsXsXsXsX& a 2.'.7XaXaXaXaXaXaXaXaXaX6X`.:.r & sXsXsXsXsXsXsXsXsXsXsXsXsXsXsXsXsXsXsXsXsX",
"sXsXsXsXsXsXsXsXsXsXsXsXsXsXsXsXsXsXsXsXsXsXsXsX& 5 s c ^ ~ ^ Y r 5 & sXsXsXsXsXsXsXsXsXsXsXsXsXsXsXsXsXsXsXsXsXsXsXsXsX",
"sXsXsXsXsXsXsXsXsXsXsXsXsXsXsXsXsXsXsXsXsXsXsXsXsXsXsXsX@ O sXsXsXsXsXsXsXsXsXsXsXsXsXsXsXsXsXsXsXsXsXsXsXsXsXsXsXsXsXsX",
"sXsXsXsXsXsXsXsXsXsXsXsXsXsXsXsXsXsXsXsXsXsXsXsXsXsXsXsXsXsXsXsXsXsXsXsXsXsXsXsXsXsXsXsXsXsXsXsXsXsXsXsXsXsXsXsXsXsXsXsX",
"sXsXsXsXsXsXsXsXsXsXsXsXsXsXsXsXsXsXsXsXsXsXsXsXsXsXsXsXsXsXsXsXsXsXsXsXsXsXsXsXsXsXsXsXsXsXsXsXsXsXsXsXsXsXsXsXsXsXsXsX",
"sXsXsXsXsXsXsXsXsXsXsXsXsXsXsXsXsXsXsXsXsXsXsXsXsXsXsXsXsXsXsXsXsXsXsXsXsXsXsXsXsXsXsXsXsXsXsXsXsXsXsXsXsXsXsXsXsXsXsXsX",
"sXsXsXsXsXsXsXsXsXsXsXsXsXsXsXsXsXsXsXsXsXsXsXsXsXsXsXsXsXsXsXsXsXsXsXsXsXsXsXsXsXsXsXsXsXsXsXsXsXsXsXsXsXsXsXsXsXsXsXsX"
};
