/* XPM */
static char *_555720883124[] = {
/* columns rows colors chars-per-pixel */
"64 64 92 1 ",
"  c #262628",
". c #2C2C2D",
"X c #2F2F30",
"o c #323234",
"O c #373739",
"+ c #373839",
"@ c #3B3B3C",
"# c #6A671D",
"$ c #716F1D",
"% c #454526",
"& c #44423D",
"* c #665733",
"= c #3F3F40",
"- c #3F4141",
"; c #424243",
": c #464648",
"> c #4B4A4C",
", c #4F4F50",
"< c #4F5051",
"1 c #525254",
"2 c #575758",
"3 c #575859",
"4 c #5B5B5C",
"5 c #5F5F60",
"6 c #626264",
"7 c #666768",
"8 c #6B6B6D",
"9 c #6F6F71",
"0 c #737475",
"q c #777779",
"w c #7B7C7D",
"e c #BA2127",
"r c #DD1A22",
"t c #E51921",
"y c #E91A21",
"u c #DF5B1C",
"i c #E85F1F",
"p c #E7641E",
"a c #ED651E",
"s c #ED7D1B",
"d c #C38A0F",
"f c #D39610",
"g c #DB9E13",
"h c #D79C18",
"j c #E7811A",
"k c #EB881A",
"l c #F1821C",
"z c #F3881B",
"x c #E19614",
"c c #EC9D16",
"v c #DFA110",
"b c #E2A90C",
"n c #EFB40B",
"m c #F1B70C",
"M c #F3BA0C",
"N c #FABD0D",
"B c #E3A312",
"V c #EAA612",
"C c #EDA912",
"Z c #F4A514",
"A c #F3AD12",
"S c #F7B013",
"D c #FAB214",
"F c #DED602",
"G c #E4DD02",
"H c #EDE302",
"J c #F1E602",
"K c #F4EA01",
"L c #FAEE00",
"P c #FDF100",
"I c #7F7F81",
"U c #838384",
"Y c #878788",
"T c #8C8C8D",
"R c #929293",
"E c #9A9A9B",
"W c #A3A3A4",
"Q c #A7A7A8",
"! c #AAAAAB",
"~ c #B3B3B4",
"^ c #BBBBBC",
"/ c #BFC0C0",
"( c #C3C3C4",
") c #C7C7C8",
"_ c #CBCBCC",
"` c #D2D2D3",
"' c #DBDBDC",
"] c #E3E3E4",
"[ c #EBEBEB",
"{ c #F3F3F3",
"} c #FDFDFD",
"| c None",
/* pixels */
"||||||||||||||||||||||||||||||||||||||||||||||||||||||||||||||||",
"||||||||||||||||||||||||||||||||||||||||||||||||||||||||||||||||",
"||||||||||||||||||||||||||||||||||||||||||||||||||||||||||||||||",
"||||||||||||||||||||||||||||||||||||||||||||||||||||||||||||||||",
"||||||||||||||||||||||||||||||||||||||||||||||||||||||||||||||||",
"||||||||||||||||||||||||||||||LPPF||||||||||||||||||||||||||||||",
"||||||||||||||||||||||||||||||PPPPJ|||||||||||||||||||||||||||||",
"||||||||||HKG|||||||||||||||||KPPPP|||||||||||||||||||||||||||||",
"||||||||||KLPH||||CAADDDDDAAC||KPPL|||||||||||||||||||||||||||||",
"|||||||||||LPJ||ASDDDCB||||CAAC||H|||KL|||||||||||||||||||||||||",
"|||||||||||||||ADDAB|||||||||||AA|||||||||||||||||||||||||||||||",
"||||||||||||||ADDS|||||||||||||||CV|||||||||||||||||||||||||||||",
"|||||||||||||CDDD||||||G|||||||||||C||||||||||||||||||||||||||||",
"|||||||||||||DDDh||||||LF|||||||||||BB||||||||||||||||||||||||||",
"||||||||||||ADDA||||||||||||||||||||||B|||||||||||||||||||||||||",
"||||||||||||DDDV|||||||||||||||||||||||B||||||||||||||||||||||||",
"|||||||||||ADDS|||||||||||J|||||||||||||B|||||||||||||||||||||||",
"|||||||||||ADDA|||||||||KLPLG||||||PPG|||B||||||||||||||||||||||",
"|||||||||||DDDA|||||||||HPPPLH|||||LPL||||V|||||||||||||||||||||",
"|||||||||||DDDC||||||||||KPPPL||||||HH|||||h||||||||||||||||||||",
"|||||||||||DDDB|||||||||||HPPH|.X|||||||||||||||||||||||||||||||",
"|||||||||CADDD|||||||||||||#$%.......|||||||||||||||||||||||||||",
"||||||||||DDDDA|||||||||||.....X.......|||||||||||||||||||||||||",
"||||||||||DDDDDA||||||||.....oXXoXXX....||||||||||||||||||||||||",
"||||||||||CDDDD||||||||....oXoXooooXXX...|||||||||||||||||||||||",
"|||||||||||ADDC||||||||....ooooOooOooX.X..||||||||||||||||||||||",
"|||||||||||CDD||||||||.X..oooO+++Oooooooooooo|||||||||||||||||||",
"||||||||||||AA||||oOoo..oooO;>5772:+O>8URWWWEw>o||||||||||||||||",
"|||||||||||||V||=w!^~R6+oo+2!{}}}{'5=Y}}}}}}}}{T||||||||||||||||",
"|||||||||||||||4]}}}}}}UOo4]}}}}}}}I=8}}{046~}}'O|||||||||||||||",
"||||||||||||||:[}}}}{}}Q+;(}}{E65I`7=1{}}2;>^}}Ro|||||||||||||||",
"||||||||||||||U}}}~3>5!!=1{}}U:;;:>;+:]}}_`{}}[!=|||||||||||||||",
"||||||||||||||!}}'=..XO;O6}}{1;;;=@++;/}}{_^^{}}!|||||||||||||||",
"||||||||||||||!}}~o  .XXo2}}{1;-===++;E}}Q;@;E}}~|||||||||||||||",
"||||||||||||||T}})o ...oo:]}}R:@++==:@q}}/:>Y[}[,|||||||||||||||",
"||||||||||||||4}}{:.  ..o@E}}{q:::>I/;4}}{[}}}),||||||||||||||||",
"||||||||||||||+'}}~O....+5,]}}}_Q~]}`;:[}}[_E2o|||||||||||||||||",
"|||||||||||||||8}}}Q:OO:T[:5]}}}}}}[0O@q81@Oo|||||||||||||||||||",
"|||||||||||||||o!}}}{_)[}{,+,!]{{]Q1@XXX...||||||||V||||||||||||",
"||||||||||||||||@~}}}}}}}_=Xo+:>>;@oXX...|||||||||AA||||||||||||",
"|||||||||||||||||+Y]}}}{W;X.XXoooXXX....||||||||||DDV|||||||||||",
"|||||||||||||||||||+496=o.......XX.....|||||||||||DDD|||||||||||",
"||||||||||||||||||||||||||@o.........||||||||||||DDDDA||||||||||",
"||||||||||||||||||||||||||&;;+o...||||||||||||||ADDDDA||||||||||",
"|||||||||||||||||||||||||||||&;||||||||||||||||||BDDDDA|||||||||",
"||||||||||||||||||||||||||||||=;||||||||||||||||||DDDAA|||||||||",
"||||||||||||||||||||||||||||||||||||||||||||||||||DDDV||||||||||",
"||||||||||||||||||||g|||||||||ZZ||||||||||||||||||DDDB||||||||||",
"|||||||||||||||||||||B|||||||||cZmm|||||||||||||||DDD|||||||||||",
"||||||||||||||||||||||B|||||||ip|xZNN||||||||||||SDDD|||||||||||",
"|||||||||||||||||||||||B|||||||pals|nMNM|||||||||DDDA|||||||||||",
"||||||||||||||||||||||||B||||||||iszl|bMM||||||||DDDB|||||||||||",
"|||||||||||||||||||||||||V||||rtyt||kll|||||||||SDDS||||||||||||",
"||||||||||||||||||||||||||BC||||eryy||s|||||||||SDDf||||||||||||",
"|||||||||||||||||||||||||||BC||;;||ryy|||||||||SDDC|||||||||||||",
"|||||||||||||||||||||||||||||Ch*||=;||||||||||SDDS||||||||||||||",
"|||||||||||||||||||||||||||||||AA|&;|||||||||DDDA|||||||||||||||",
"|||||||||||||||||||||||||||||||||CAg|||||||DSDSB||||||||||||||||",
"|||||||||||||||||||||||||||||||||||CADDDDDDDAVd|||||||||||||||||",
"|||||||||||||||||||||||||||||||||||||||gAVv|||||||||||||||||||||",
"||||||||||||||||||||||||||||||||||||||||||||||||||||||||||||||||",
"||||||||||||||||||||||||||||||||||||||||||||||||||||||||||||||||",
"||||||||||||||||||||||||||||||||||||||||||||||||||||||||||||||||",
"||||||||||||||||||||||||||||||||||||||||||||||||||||||||||||||||"
};
