/* XPM */
static char *_abc708197d7456ec4249df33a745224[] = {
/* columns rows colors chars-per-pixel */
"30 32 174 2 ",
"   c #00369D",
".  c #003A9F",
"X  c #0048A6",
"o  c #004DA9",
"O  c #0055AD",
"+  c #0059AE",
"@  c #005CB0",
"#  c #0064B4",
"$  c #0369B6",
"%  c #026CB8",
"&  c #116AB7",
"*  c #1274BC",
"=  c #1A73BB",
"-  c #2575BF",
";  c #2278BD",
":  c #1E74C2",
">  c #2676C1",
",  c #2876C1",
"<  c #207EC1",
"1  c #2D7BC2",
"2  c #327DC4",
"3  c #0092D9",
"4  c #0997DB",
"5  c #0099DB",
"6  c #0F99DC",
"7  c #179BDC",
"8  c #1C9CDD",
"9  c #2B83C3",
"0  c #2E81CA",
"q  c #3086C4",
"w  c #3886C5",
"e  c #3489C6",
"r  c #398BC7",
"t  c #3E86C9",
"y  c #3B8CCB",
"u  c #2C9FDD",
"i  c #3B94D5",
"p  c #329FDD",
"a  c #36A2DE",
"s  c #3BA4DF",
"d  c #22A7E1",
"f  c #2CA7E1",
"g  c #2EADE3",
"h  c #31A5E0",
"j  c #3AA6E0",
"k  c #34A9E1",
"l  c #3BACE2",
"z  c #448BCC",
"x  c #4D8ECC",
"c  c #4492CA",
"v  c #4B93CD",
"b  c #5193CD",
"n  c #539ACD",
"m  c #5B9DCF",
"M  c #458FD0",
"N  c #4391D1",
"B  c #4B96D3",
"V  c #4098D7",
"C  c #4D9AD6",
"Z  c #4D9ED9",
"A  c #5696D0",
"S  c #559BD6",
"D  c #5D9CD4",
"F  c #569FD8",
"G  c #619ED5",
"H  c #44A3DE",
"J  c #4CA3DD",
"K  c #55A3DC",
"L  c #5CA3DA",
"P  c #57A9DF",
"I  c #63A2D4",
"U  c #6BA3D3",
"Y  c #63A4D9",
"T  c #6CA6D9",
"R  c #60AADF",
"E  c #6BACDD",
"W  c #72A7D3",
"Q  c #73ABD6",
"!  c #74ACDC",
"~  c #7AADDB",
"^  c #7AB2DD",
"/  c #44A7E0",
"(  c #48A6E0",
")  c #44AAE1",
"_  c #4BABE2",
"`  c #55ADE2",
"'  c #59ACE1",
"]  c #4EB1E3",
"[  c #4ABAE8",
"{  c #55B0E3",
"}  c #5BB3E4",
"|  c #54BAE7",
" . c #62ADE0",
".. c #6BAFE1",
"X. c #62B3E4",
"o. c #6CB3E3",
"O. c #60B9E7",
"+. c #61BCE9",
"@. c #6CBEE9",
"#. c #72B2E2",
"$. c #7AB5E2",
"%. c #77BAE6",
"&. c #7DBBE6",
"*. c #65C6ED",
"=. c #75C0E9",
"-. c #7FC1E9",
";. c #7FCEF0",
":. c #80AED6",
">. c #87B3D9",
",. c #8AB5DD",
"<. c #8DBADD",
"1. c #93BBDE",
"2. c #87B7E0",
"3. c #83B9E3",
"4. c #89BBE3",
"5. c #94BEE0",
"6. c #96C0DF",
"7. c #9EC1DF",
"8. c #88C7ED",
"9. c #93C0E4",
"0. c #9CC4E3",
"q. c #90C7EB",
"w. c #94CCED",
"e. c #9ACBEC",
"r. c #9DD2EF",
"t. c #90D2F0",
"y. c #9DD0F0",
"u. c #9ADEF7",
"i. c #A5C6E5",
"p. c #A3C9E5",
"a. c #ABCBE7",
"s. c #A3CCEB",
"d. c #A8CDEB",
"f. c #B4CFE9",
"g. c #ADD2ED",
"h. c #BAD1E7",
"j. c #B5D3EB",
"k. c #BCD7EA",
"l. c #BCD8EB",
"z. c #A6D4F0",
"x. c #ADD7F1",
"c. c #AADBF3",
"v. c #B2DBF3",
"b. c #BADBF2",
"n. c #BBE4F8",
"m. c #BEEAFB",
"M. c #C4DAEE",
"N. c #C9DFEF",
"B. c #D2DDEC",
"V. c #C2DEF3",
"C. c #CADFF2",
"Z. c #C0E2F5",
"A. c #CAE2F3",
"S. c #C0EFFD",
"D. c #CEE8F9",
"F. c #D1E4F3",
"G. c #D9E7F3",
"H. c #D6E9F6",
"J. c #DCEAF5",
"K. c #D5ECF9",
"L. c #DAEDF9",
"P. c #D3F3FE",
"I. c #DAF3FE",
"U. c #E3ECF6",
"Y. c #E4EFF8",
"T. c #E5F2FA",
"R. c #EBF3F9",
"E. c #E0FAFF",
"W. c #EDFBFF",
"Q. c #F1F1F6",
"!. c #F2F6FB",
"~. c #F5FBFE",
"^. c #FFFFFF",
"/. c None",
/* pixels */
"/./././././././././././././././././././././././././././././.",
"/./././././././././././././././././././././././././././././.",
"/./././././././././././.U <.<.<.~ b /./././././././././././.",
"/././././././././.1.U.~.W.P.K.P.E.~.!.B.m /././././././././.",
"/././././././.1.^.~.u.[ d 3 t.| 5 g *.S.^.Q.c /././././././.",
"/././././.= Q.^.;.6 7 g l k ^.c.d l f 4 f m.^.7././././././.",
"/./././.9 ^.P.a 8 } O.] j =.^.L.s ] _ @.) 7 O.^.M./././././.",
"/././.; ^.n.u j } K.} { a c.^.^.=.) l r.Z.a s _ ^.h././././.",
"/././.G.I.p { / T.L./ } { R.^.^.x.s { } ^.w./ / { ^.W /././.",
"/./.>.^.( } H e.^.z.H _ -.^.^.^.L.( X.` !.^.X.{ H 8.^./././.",
"/./.!.y.H ' o.^.^.e.J J g.^.^.^.^.%.P ` L.^.A.J ..H ~.5././.",
"/.U ^.P ..J b.^.^.e.J  .^.D.T.A.^.b.J P H.^.^.&.` K q.^././.",
"/.N.D.Z R ..^.^.^.e.i d.T.K ^.g.#.Y...K H.^.^.V.Z E ' ^.m /.",
"/.R.s.K C x.^.!.^.s.Z 3.K ..^.H.i #.#.F H.~.^.^.$.L Z !.1./.",
"/.^.3.S Y !.^.4.#.d.F Y C 4.^.J.D L Y ! d.S A.^.j.C C L.l.c ",
"r ^.! N 4.^.J.C D Y Y Y B 9.^.!.L Y Y E Y M $.^.T.F B A.N.n ",
"e ^.! t l.^.M.M G D Y G z a.^.^.~ A Y G D S T ^.^.2.2 A.C.n ",
"/.!.! x !.^.M.z D D D D z N.^.^.2.z D D D b T ^.^.f.: G.j./.",
"/.R.,.D ^.^.U.z A A A b t J.^.^.5.2 A A A t Q ^.^.G.> R.4./.",
"/.l.a.U ^.^.^.U 1 1 , 1 z !.^.^.a.> 1 > 2 > a.^.^.!.x !.v /.",
"/.n U.f.^.^.^.1.- ~ i.B.Y.^.^.^.!.J.M.1.D 2 U.^.^.!.f.G././.",
"/./.M.^.^.^.^.R.R.^.^.^.^.^.^.^.^.^.^.^.^.U.^.^.^.^.^.U /./.",
"/./.b ^.^.^.^.^.^.^.^.^.^.^.^.^.^.^.^.^.^.^.^.^.^.^.J./././.",
"/././.1.^.^.^.^.^.^.^.^.^.^.^.^.^.^.^.^.^.^.^.^.^.^.w /././.",
"/./././.A.^.F.<.^ n r ; 9 !.^.^.0.% q c I <.p.~.^.U /./././.",
"/././././.J.~.&   O $ # % R.^.^.<.o $ # X . I ^.Q /././././.",
"/./././././.a.^.a.* + O * ^.^.^.p.o + @ c R.^.b /./././././.",
"/././././././.c !.^.C.I n ^.^.^.f.q 6.R.^.j././././././././.",
"/././././././././.c j.R.!.^.^.^.^.R.J.1././././././././././.",
"/./././././././././././././.r r /./././././././././././././.",
"/./././././././././././././././././././././././././././././.",
"/./././././././././././././././././././././././././././././."
};
