/* XPM */
static char *_e9e267fd15546c6808cb39332b726c3[] = {
/* columns rows colors chars-per-pixel */
"16 14 122 2 ",
"   c #005CB0",
".  c #006DB8",
"X  c #1572BB",
"o  c #197BBF",
"O  c #2D7AC2",
"+  c #2B7EC7",
"@  c #3481C8",
"#  c #3785CB",
"$  c #398ED1",
"%  c #2E9DDC",
"&  c #3F91D3",
"*  c #3995D7",
"=  c #15A1E1",
"-  c #21A7E3",
";  c #4085C8",
":  c #478AC9",
">  c #428ACC",
",  c #498BCA",
"<  c #5A96CF",
"1  c #4F93D0",
"2  c #4198D7",
"3  c #5094D0",
"4  c #49A4DE",
"5  c #60A1D1",
"6  c #65A7D4",
"7  c #64A7D5",
"8  c #67ADDF",
"9  c #70A5D6",
"0  c #76ADD7",
"q  c #73AEDE",
"w  c #76B0DF",
"e  c #77B0DF",
"r  c #77B1DF",
"t  c #7EB3DA",
"y  c #7FB4DA",
"u  c #7CB6DC",
"i  c #7DBADF",
"p  c #44A7E0",
"a  c #58ACE1",
"s  c #4CB2E8",
"d  c #5CB3E7",
"f  c #6DB6E5",
"g  c #64B9E7",
"h  c #7BB7E3",
"j  c #7BB8E4",
"k  c #78BBE6",
"l  c #64C5EF",
"z  c #6FC3EF",
"x  c #7CC3EA",
"c  c #6CC8F0",
"v  c #80B5DB",
"b  c #82B5DA",
"n  c #81B0DE",
"m  c #81B6DC",
"M  c #84B7DC",
"N  c #85B4DF",
"B  c #84B9DD",
"V  c #87B8DC",
"C  c #87B8DD",
"Z  c #8CBDDF",
"A  c #91BCDF",
"S  c #81B7E4",
"D  c #8ABCE4",
"F  c #88BFE6",
"G  c #91BFE0",
"H  c #92BFE0",
"J  c #81C5E7",
"K  c #83C4E6",
"L  c #82C1E9",
"P  c #85C6EB",
"I  c #87CFEF",
"U  c #8FCEEC",
"Y  c #92C0E0",
"T  c #97C4E8",
"R  c #94CAEC",
"E  c #90CEEC",
"W  c #99D0EE",
"Q  c #8FCEF2",
"!  c #95D6F5",
"~  c #9ED8F5",
"^  c #A6C6E5",
"/  c #A6CCE7",
"(  c #A8CEE7",
")  c #A3CAE9",
"_  c #B2D0E8",
"`  c #B3D0EB",
"'  c #B6D6EB",
"]  c #BCD1EB",
"[  c #B8D7EF",
"{  c #B5D8ED",
"}  c #ADD4F1",
"|  c #A7DCF4",
" . c #B7D9F1",
".. c #C2D9ED",
"X. c #C3DCEE",
"o. c #C4DCEE",
"O. c #C7DDF0",
"+. c #CEE1F2",
"@. c #CEE3F3",
"#. c #CBE2F4",
"$. c #D4E6F3",
"%. c #D2E6F4",
"&. c #D2E7F6",
"*. c #D3E7F6",
"=. c #DDE9F5",
"-. c #DEE8F4",
";. c #D8ECF9",
":. c #DFF3FC",
">. c #E2EEF8",
",. c #EAF2F9",
"<. c #EEF5FA",
"1. c #EFF6FB",
"2. c #F0F7FB",
"3. c #F1F7FB",
"4. c #F4F9FC",
"5. c #FBFBFD",
"6. c #FBFCFD",
"7. c #FBFDFE",
"8. c #FCFDFE",
"9. c #FDFEFE",
"0. c gray100",
"q. c None",
/* pixels */
"q.q.q.q.q.q.q.7 7 q.q.q.q.q.q.q.",
"q.q.q.q.q.i J E E K u q.q.q.q.q.",
"q.q.q.{ ! l = | I - c ~ ( q.q.q.",
"q.q.:.s x P p 0.;.% W g z &.q.q.",
"q.@.d k 0.a R 0.0.f L 0.4 Q _ q.",
"q.} 2 2.0.8 F &.&.h j 0.#.*  .q.",
"C S ) 1.r r & >.[ $ e D 8.q T b ",
"M n ,.O.+ 1 > 7.@.@ 1 # 4.` M y ",
"q.] 7.=.O , 9 0.,.< ; : 0.-.^ q.",
"q...0.0.7.0.0.0.0.0.0.5.0.0.A q.",
"q.q.3.0./ B H 0.<.v Z ' 0.o.q.q.",
"q.q.q.A 5 . X 0.-.  o 0 m q.q.q.",
"q.q.q.q.q.t H $.X.C t q.q.q.q.q.",
"q.q.q.q.q.q.q.q.q.q.q.q.q.q.q.q."
};
