/* XPM */
static char *_555720875582[] = {
/* columns rows colors chars-per-pixel */
"16 16 54 1 ",
"  c #2B2B2D",
". c #2C2C2D",
"X c #2D2D2E",
"o c #2E2E2F",
"O c #2F2F30",
"+ c #2F2F31",
"@ c #3A3A3C",
"# c #3B3B3D",
"$ c #3E3E3F",
"% c #504D26",
"& c #615D21",
"* c #434344",
"= c #515153",
"- c #5B5B5C",
"; c #747476",
": c #79797A",
"> c #B22929",
", c #ED9016",
"< c #F0A911",
"1 c #F2AC12",
"2 c #F3AC12",
"3 c #F3AC13",
"4 c #F4AE13",
"5 c #F7AF13",
"6 c #F5AE14",
"7 c #F6AF14",
"8 c #F8AF13",
"9 c #F9B113",
"0 c #F9B014",
"q c #F9B114",
"w c #EBC907",
"e c #F5EB00",
"r c #F9EC01",
"t c #858586",
"y c #89898A",
"u c #8A8A8B",
"i c #8D8D8E",
"p c #8F8F90",
"a c #969697",
"s c #9A9A9A",
"d c #9E9E9F",
"f c #A4A4A4",
"g c #AFAFAF",
"h c #AFAFB0",
"j c #B7B7B8",
"k c #B7B7B9",
"l c #B9B9BA",
"z c #BBBBBB",
"x c #C8C8C9",
"c c gray81",
"v c #D0D0D0",
"b c LightGray",
"n c gray87",
"m c None",
/* pixels */
"mmmmmmmmmmmmmmmm",
"mmmmmmmmemmmmmmm",
"mmmm3mmmwmmmmmmm",
"mmm5mmmmmmmmmmmm",
"mmm8mmrmmmmmmmmm",
"mm40mm&%Xmmmmmmm",
"mmm5mm+##@-mmmmm",
"mmmmvh;xdflnmmmm",
"mmmly at*ylvmmmm",
"mmmmbayjg=:mmmmm",
"mmmmms$+  mm0mmm",
"mmmmmmmmmmmm65mm",
"mmmmmmmm,mmm9mmm",
"mmmmmmmm>mmm3mmm",
"mmmmmmmmmmm<mmmm",
"mmmmmmmmmmmmmmmm"
};
